<?xml version="1.0" encoding="UTF-8"?>
<svg id="b" data-name="Layer 2" xmlns="http://www.w3.org/2000/svg" width="572.6775mm" height="79.3495mm" viewBox="0 0 1623.3378 224.9276">
  <g id="c" data-name="Layer 1">
    <path d="M1607.8216,146.5706l-36.4119-38.2563,41.6347-50.8528c6.8631-8.1948,10.2934-16.696,10.2934-25.5055,0-5.4272-1.3567-10.3957-4.0702-14.9016-2.7135-4.508-6.4795-8.0677-11.2919-10.6791-4.8143-2.6114-10.1913-3.9181-16.1333-3.9181-6.4524,0-12.0608,1.3838-16.8231,4.1494-4.7622,2.7656-9.2952,7.0152-13.5968,12.7507l-33.3398,43.4813-36.4119-38.2563c-6.9652-7.3757-13.7262-12.907-20.2807-16.5938-6.5566-3.6868-14.2388-5.5313-23.0463-5.5313-8.7074,0-16.4146,1.8193-23.1234,5.4542-6.7087,3.6368-11.8816,8.5532-15.5163,14.7493-1.9498,3.3231-3.3592,6.8056-4.2634,10.437-8.0643-7.589-17.4507-14.0172-28.2615-19.1945-19.3595-9.2681-41.841-13.9031-67.4488-13.9031s-48.0892,4.6351-67.4465,13.9031c-19.3595,9.2703-34.3132,22.4065-44.8631,39.4089-.9909,1.5968-1.9197,3.2256-2.8175,4.8705-1.1774-16.5448-8.9399-29.3655-23.33-38.4396-15.6705-9.885-38.1521-14.8266-67.4465-14.8266h-86.652c-9.8329,0-18.4632,2.0217-25.8891,6.069-5.6344,3.0694-10.2904,7.1172-13.9796,12.1328-1.47-4.4198-3.7188-8.2439-6.7845-11.4429-5.8898-6.144-13.6989-9.2181-23.4298-9.2181s-17.5401,3.074-23.4299,9.2181c-5.8897,6.1461-8.8345,14.5451-8.8345,25.1971v66.219l-54.3875-75.1287c-6.6589-9.3223-13.6241-15.9019-20.8956-19.7429-7.2736-3.841-16.5938-5.7626-27.9627-5.7626-15.6706,0-27.7835,4.0473-36.3347,12.1379-.1384.1309-.2532.2803-.3893.413-.7139-.8968-1.4706-1.7633-2.32-2.5638-5.327-5.0186-12.4964-7.5279-21.5103-7.5279h-116.1507c-9.8329,0-18.4632,2.0217-25.8891,6.069-7.4257,4.0454-13.1612,9.7808-17.2086,17.2065-1.6089,2.9535-2.8837,6.1061-3.8525,9.4407-.9026-1.2756-1.8637-2.5529-2.9046-3.8322-7.8364-9.6287-19.4366-17.6693-34.8008-24.1217-15.3642-6.4526-33.7483-9.6787-55.1565-9.6787-23.4548,0-44.1189,4.6601-61.9924,13.9802-6.6635,3.4747-12.765,7.4829-18.3109,12.0184-1.0987-5.4648-3.5089-9.9957-7.2849-13.5543-5.327-5.0186-12.4964-7.5279-21.5103-7.5279h-116.1506c-9.8329,0-18.4634,2.0217-25.8891,6.069-7.4257,4.0454-13.1613,9.7808-17.2086,17.2065-4.0454,7.4258-6.0669,16.0561-6.0669,25.8891v.3678c-9.7473-15.6789-23.4874-27.8268-41.2782-36.3961-18.1799-8.7575-39.6652-13.1363-64.4518-13.1363H49.1646c-9.8329,0-18.4634,2.0217-25.8891,6.069-7.4258,4.0454-13.1613,9.7808-17.2086,17.2065C2.0216,35.6178,0,44.2481,0,54.081v116.7655c0,9.8329,2.0216,18.4634,6.0669,25.8891,4.0473,7.4257,9.7828,13.1613,17.2086,17.2067,7.4257,4.0452,16.0561,6.0689,25.8891,6.0689h65.7563c24.7866,0,46.2719-4.3788,64.4518-13.1362,17.7909-8.5693,31.531-20.7171,41.2782-36.3961v.3676c0,9.8329,2.0216,18.4634,6.0669,25.8891,4.0473,7.4257,9.7829,13.1613,17.2086,17.2067,7.4257,4.0452,16.0561,6.0689,25.8891,6.0689h117.3803c9.0139,0,16.1832-2.5093,21.5082-7.5278,3.3708-3.1756,5.6677-7.1156,6.9056-11.8088,4.7631,3.8079,9.8882,7.2611,15.4639,10.2728,17.2607,9.3203,37.1558,13.9804,59.6895,13.9804,14.1345,0,26.8352-2.253,38.102-6.761,11.2669-4.5059,20.8456-11.1646,28.7318-19.9722l7.8364,11.9837c2.6614,4.0975,5.6585,7.1694,8.9867,9.2182,3.3284,2.0487,7.6051,3.074,12.83,3.074,6.9631,0,12.5464-2.1529,16.7459-6.4545,1.0291-1.0541,1.9281-2.1968,2.705-3.423.7468.4651,1.5022.9218,2.2868,1.3493,7.4258,4.0452,16.0561,6.0689,25.8891,6.0689h117.3803c8.0666,0,14.6445-2.0254,19.7568-6.0445,5.798,5.6474,13.3401,8.5039,22.6678,8.5039,9.7308,0,17.5401-3.074,23.4298-9.2202,5.8898-6.144,8.8346-14.5431,8.8346-25.1971v-70.0581l57.7679,79.891c6.5545,9.0139,13.2905,15.3642,20.2035,19.0531,6.9152,3.6868,15.8498,5.5313,26.8104,5.5313,15.1598,0,26.8873-3.8931,35.1842-11.6774,3.5888-3.3679,6.3534-7.3877,8.3899-11.9828,3.9521,6.421,9.27,11.4744,15.9839,15.1319,7.4258,4.0452,16.0561,6.0689,25.8891,6.0689h98.942c19.3595,0,35.8242-2.305,49.3961-6.9131,13.5718-4.6101,23.8904-11.3438,30.9576-20.2035,3.0455-3.8179,5.3942-8.0045,7.1274-12.5167,9.9508,12.8,22.8119,23.0449,38.686,30.6444,19.3573,9.2703,41.8409,13.9054,67.4465,13.9054s48.0892-4.6351,67.4488-13.9054c10.2778-4.9209,19.2762-10.9658,27.0716-18.0673,0,.0057-.0008.0111-.0008.0167,0,5.427,1.3567,10.3957,4.0702,14.9016,2.7135,4.508,6.4797,8.0656,11.2919,10.6791,4.8143,2.6114,10.1915,3.9181,16.1333,3.9181,6.4524,0,12.0609-1.3838,16.8231-4.1496,4.7622-2.7656,9.2952-7.0152,13.5968-12.7528l33.3399-43.4791,36.4117,38.2563c6.9652,7.3737,13.7262,12.905,20.2807,16.5939,6.5566,3.6868,14.2388,5.5313,23.0463,5.5313,8.7075,0,16.4146-1.8195,23.1234-5.4563,6.7087-3.6347,11.8816-8.5512,15.5163-14.7494,3.6368-6.1961,5.4542-12.9299,5.4542-20.2035,0-6.0419-1.2796-12.1109-3.8389-18.2049-2.5614-6.094-6.4545-11.8566-11.6774-17.2857ZM131.4377,143.3443c-2.1008,7.4779-5.0436,12.7008-8.8346,15.6727-3.7889,2.9698-8.6033,4.4559-14.4409,4.4559h-15.979V61.4547h15.979c5.8376,0,10.652,1.4859,14.4409,4.4559,3.791,2.9698,6.7339,8.1948,8.8346,15.6705,2.0987,7.4779,3.1492,17.7714,3.1492,30.8827s-1.0505,23.4048-3.1492,30.8805ZM312.8341,61.4547h73.1321c.4822,0,.938-.0361,1.4097-.0504-4.9123,10.4987-8.1418,21.9349-9.6303,34.3412-1.0317-1.638-2.2446-3.1442-3.686-4.4836-5.0707-4.7122-11.8566-7.0673-20.3578-7.0673h-40.8677v-22.7399ZM312.8341,137.6609h40.8677c8.5012,0,15.2871-2.3572,20.3578-7.0673,1.3074-1.2154,2.4391-2.5587,3.4094-4.0192,1.2877,13.3858,4.4509,25.6868,9.4985,36.8984h-74.1334v-25.812ZM570.3477,94.3339h-44.2461c-8.0927,0-14.5201,2.228-19.2823,6.6839-4.7623,4.4559-7.1444,10.627-7.1444,18.5134s2.3821,14.0574,7.1444,18.5132c4.7622,4.4559,11.1896,6.6839,19.2823,6.6839h1.2276v1.536c0,6.4524-1.6131,11.4459-4.8394,14.9806-3.2262,3.5326-7.7591,5.2999-13.5968,5.2999-9.0139,0-15.7727-4.4809-20.2807-13.4447-4.5059-8.9617-6.7608-22.5065-6.7608-40.6363s2.7156-31.6747,8.1448-40.6385c5.427-8.9617,13.776-13.4426,25.0429-13.4426,5.427,0,10.1913,1.0504,14.2888,3.1492,4.0952,2.1008,8.0406,5.5563,11.8295,10.3705,4.7122,6.044,9.116,10.2686,13.2134,12.6758,4.0973,2.4071,9.116,3.6097,15.0558,3.6097,5.5313,0,10.3455-1.1255,14.443-3.3784.6509-.3582,1.2384-.7742,1.8426-1.175v13.1359c-4.6461-1.6125-9.76-2.4366-15.3644-2.4366ZM677.8953,163.4729v-25.812h40.8676c8.5012,0,15.2872-2.3572,20.3578-7.0673,5.0686-4.7122,7.6051-11.2669,7.6051-19.6658s-2.5364-14.9558-7.6051-19.6658c-5.0706-4.7122-11.8566-7.0673-20.3578-7.0673h-40.8676v-22.7399h73.1321c4.2032,0,7.9885-.5688,11.3897-1.6601v104.9736c-3.0812-.8475-6.4561-1.2954-10.1602-1.2954h-74.3617ZM1060.1935,61.4547h29.1902c4.3017,0,7.5801,1.0504,9.8329,3.149,2.2551,2.1008,3.3805,5.1478,3.3805,9.1431,0,7.9885-4.4038,11.9838-13.2134,11.9838h-29.1902v-24.2759ZM1107.9742,159.9382c-2.5593,2.3551-6.1961,3.5347-10.9083,3.5347h-36.8724v-27.348h36.8724c4.8143,0,8.4762,1.1505,10.9854,3.4555,2.5093,2.3051,3.764,5.6605,3.764,10.0642,0,4.506-1.2797,7.9385-3.8411,10.2936ZM1160.213,109.0833c9.4682-3.7526,16.9892-8.6598,22.6209-14.6864-.815,5.8152-1.2378,11.8324-1.2378,18.0669,0,1.6983.0405,3.3756.1011,5.0427-6.1161-3.4996-13.2534-6.3234-21.4842-8.4232ZM1330.7803,146.4956c-1.7424,8.2448-4.3288,14.0575-7.7593,17.4378-3.4305,3.3784-7.8614,5.0686-13.2905,5.0686s-9.8579-1.6902-13.2884-5.0686c-3.4325-3.3804-6.0189-9.1931-7.7591-17.4378-1.7424-8.2469-2.6114-19.5908-2.6114-34.0317s.8691-25.787,2.6114-34.0317c1.7402-8.2449,4.3267-14.0575,7.7591-17.438,3.4305-3.3805,7.8614-5.0707,13.2884-5.0707s9.86,1.6902,13.2905,5.0707,6.0169,9.1931,7.7593,17.438c1.7402,8.2448,2.6114,19.5887,2.6114,34.0317s-.8712,25.7849-2.6114,34.0317ZM1434.0056,143.6939c2.5705-9.7496,3.8614-20.1576,3.8614-31.2301,0-5.5347-.3242-10.9025-.9664-16.1067l19.2776,20.254-22.1725,27.0827Z" fill="#da3832"/>
  </g>
</svg>