<?xml version="1.0" encoding="UTF-8"?>
<svg id="b" data-name="Layer 2" xmlns="http://www.w3.org/2000/svg" width="81.2767mm" height="74.0802mm" viewBox="0 0 230.3906 209.9912">
  <g id="c" data-name="Layer 1">
    <path d="M5.9248,187.2671c-3.9502-7.2495-5.9248-15.6743-5.9248-25.2739V47.998c0-9.5996,1.9746-18.0244,5.9248-25.2744,3.9497-7.2495,9.5493-12.8491,16.7993-16.7993C29.9736,1.9746,38.3984,0,47.998,0h64.1973c24.1987,0,45.1733,4.2744,62.9224,12.8242,17.7495,8.5498,31.3989,20.7241,40.9482,36.5234,9.5498,15.7993,14.3247,34.3486,14.3247,55.6479s-4.7749,39.8481-14.3247,55.6475c-9.5493,15.7993-23.1987,27.9741-40.9482,36.5234-17.749,8.5498-38.7236,12.8247-62.9224,12.8247H47.998c-9.5996,0-18.0244-1.9751-25.2739-5.9248-7.25-3.9497-12.8496-9.5498-16.7993-16.7993ZM119.6948,150.4438c3.7002-2.8999,6.5747-8,8.625-15.2998,2.0498-7.2993,3.0747-17.3491,3.0747-30.1484s-1.0249-22.8491-3.0747-30.1489c-2.0503-7.2998-4.9248-12.3994-8.625-15.2993-3.6997-2.8999-8.3994-4.3501-14.0991-4.3501h-15.5996v99.5962h15.5996c5.6997,0,10.3994-1.4497,14.0991-4.3496Z" fill="#da3832"/>
  </g>
</svg>